<?xml version="1.0" encoding="UTF-8" standalone="no"?>
<!DOCTYPE svg PUBLIC "-//W3C//DTD SVG 1.1//EN" "http://www.w3.org/Graphics/SVG/1.1/DTD/svg11.dtd">
<svg width="100%" height="100%" viewBox="0 0 829 829" version="1.1" xmlns="http://www.w3.org/2000/svg" xmlns:xlink="http://www.w3.org/1999/xlink" xml:space="preserve" xmlns:serif="http://www.serif.com/" style="fill-rule:evenodd;clip-rule:evenodd;stroke-linejoin:round;stroke-miterlimit:2;">
    <g transform="matrix(1,0,0,1,-2739,0)">
        <g id="campusfundader" transform="matrix(1,0,0,1,-0.556583,0)">
            <rect x="2739.56" y="0" width="828.702" height="828.702" style="fill:none;"/>
            <g transform="matrix(1,0,0,1,0,22.7494)">
                <g transform="matrix(1.7966,0,0,2.08841,2828.48,649.259)">
                    <text x="0px" y="0px" style="font-family:'Helvetica-Bold', 'Helvetica';font-weight:700;font-size:64.176px;fill:white;">FUNDADER</text>
                </g>
                <g transform="matrix(0.478531,0,0,0.158099,2845.77,38.5163)">
                    <g transform="matrix(1.25081,0,0,3.78593,0,0)">
                        <path d="M505.5,155.5C571.85,153.083 632.516,170.25 687.5,207C696.269,214.579 697.769,223.412 692,233.5C686.82,239.424 680.32,241.591 672.5,240C599.395,189.929 520.728,178.929 436.5,207C353.625,240.213 300.792,300.047 278,386.5C261.325,470.469 280.325,545.135 335,610.5C401.41,680.524 482.243,706.691 577.5,689C648.228,672.417 702.395,633.251 740,571.5C747.816,557.535 754.816,543.201 761,528.5C772.743,518.213 783.076,519.546 792,532.5C794,537.167 794,541.833 792,546.5C752.426,641.39 682.592,700.89 582.5,725C475.16,743.774 383.993,713.941 309,635.5C249.17,565.21 226.17,484.21 240,392.5C262.773,286.731 324.273,213.565 424.5,173C450.898,163.623 477.898,157.79 505.5,155.5Z" style="fill:rgb(253,107,46);"/>
                    </g>
                    <g transform="matrix(1.25081,0,0,3.78593,0,0)">
                        <path d="M515.5,288.5C547.754,287.896 577.754,295.73 605.5,312C617.422,322.976 617.422,333.976 605.5,345C600.697,347.2 595.697,347.867 590.5,347C542.629,318.061 495.963,319.728 450.5,352C407.907,389.871 396.407,435.704 416,489.5C438.449,535.832 475.616,559.666 527.5,561C541.083,567.32 544.583,577.154 538,590.5C533.82,595.45 528.486,598.117 522,598.5C468.508,596.259 426.174,573.593 395,530.5C359.792,472.438 359.792,414.438 395,356.5C424.594,315.282 464.761,292.615 515.5,288.5Z" style="fill:rgb(253,107,46);"/>
                    </g>
                </g>
            </g>
        </g>
    </g>
</svg>
